<svg xmlns="http://www.w3.org/2000/svg" width="323.333" height="58.5">
  <path fill="#005288" d="M124.258 43.577h-1.73c-1.488 0-2.103-.894-2.747-1.904-.64-1.014-2.93-4.225-2.93-4.225h-5.19v6.047h-2.5v-14.77h9.13c2.97 0 5.62.998 5.62 4.248 0 3.28-2.22 4.135-3.96 4.42l4.338 6.184zm-5.73-8.637c1.873 0 2.85-.322 2.85-1.91 0-1.627-1.08-1.797-2.992-1.797h-6.73v3.707h6.872zm39.534 9.008c-5.617 0-9.04-3.562-9.04-7.84 0-4.276 3.366-7.838 9.04-7.838s9.037 3.592 9.037 7.838c0 4.278-3.37 7.84-9.04 7.84zm6.524-7.84c0-2.85-2.45-5.33-6.524-5.33-4.078 0-6.527 2.48-6.527 5.33 0 2.854 2.45 5.334 6.527 5.334 4.104 0 6.524-2.48 6.524-5.334zm-68.78-4.56l-3.22 5.99h6.44l-3.22-5.99zm4.525 8.494l-9.05.002-1.82 3.45H86.6l7.98-14.77h2.513l8.12 14.853h-1.51c-1.49 0-1.952-.927-2.476-1.904-.548-1.026-.895-1.63-.895-1.63zm36.47-4.768h7.88v6.098c-1.2.83-3.52 2.633-7.47 2.633-5.49 0-9.18-3.662-9.18-7.87 0-4.123 3.54-7.87 9.27-7.87 3.95 0 6.15 1.8 7.01 2.43l-1.46 2.032c-1.63-1.086-3.57-1.945-5.55-1.945-4.3 0-6.75 2.604-6.75 5.38 0 2.722 2.54 5.327 6.69 5.327 1.72 0 3.47-.58 4.93-1.44v-2.26h-3.51c-1.53 0-1.84-1.49-1.84-1.49s-.09-.3-.05-1.03h.05zm121.69 1.793c0 3.732-2.38 6.855-8.22 6.855-5.81 0-8.22-3.123-8.22-6.855V28.73h2.51v8.337c0 2.674 1.62 4.356 5.73 4.356 4.1 0 5.71-1.683 5.71-4.356V28.73h2.51v8.337m-28.74-1.782h7.868v6.086c-1.2.83-3.52 2.63-7.46 2.63-5.48 0-9.157-3.65-9.157-7.85 0-4.11 3.53-7.85 9.246-7.85 3.94 0 6.148 1.8 7.006 2.43l-1.46 2.03c-1.64-1.08-3.573-1.94-5.545-1.94-4.287 0-6.736 2.6-6.736 5.37 0 2.72 2.534 5.31 6.673 5.31 1.716 0 3.458-.57 4.913-1.42V37.8h-3.51c-1.53 0-1.843-1.487-1.843-1.487s-.1-.29-.048-1.028h.05m-12.25 8.267h-13.2v-14.81h12.883v2.517h-10.37v3.4h7.784v2.52h-7.787v3.85h10.68m60.576 2.56h-1.73c-1.49 0-2.105-.9-2.747-1.91-.64-1.02-2.932-4.23-2.932-4.23h-5.183v6.05h-2.51V28.74h9.12c2.96 0 5.61.997 5.61 4.25 0 3.277-2.22 4.13-3.96 4.418l4.33 6.186m-5.73-8.64c1.87 0 2.85-.323 2.85-1.91 0-1.627-1.08-1.796-2.997-1.796h-6.73v3.707h6.865zm17.81 8.95c-5.61 0-9.03-3.56-9.03-7.83s3.36-7.834 9.024-7.834c5.67 0 9.03 3.59 9.03 7.832 0 4.27-3.36 7.83-9.03 7.83m6.52-7.83c0-2.85-2.45-5.328-6.52-5.328-4.07 0-6.517 2.477-6.517 5.325 0 2.84 2.446 5.32 6.517 5.32 4.1 0 6.52-2.48 6.52-5.33m-98.73-4.16c-1.757-.71-3.337-1.17-6.37-1.17-2.734 0-4.133.71-4.133 1.962 0 1.422.52 1.88 4.76 1.88 6.67 0 7.44 2.02 7.44 4.323 0 4.26-3.956 4.99-7.26 4.99-4.094 0-6.135-.94-8.19-1.95l1.007-2.33c1.957.89 3.783 1.78 7.24 1.78 2.65 0 4.5-.57 4.5-2.224 0-1.88-.967-1.932-6.494-2.072-3.367-.06-5.7-1.026-5.7-4.104 0-2.48 1.85-4.76 6.81-4.76 3.55 0 5.59.695 7.43 1.56l-1.04 2.12m118.152 0c-1.756-.705-3.334-1.17-6.367-1.17-2.74 0-4.14.713-4.14 1.97 0 1.42.513 1.88 4.76 1.88 6.67 0 7.435 2.02 7.435 4.32 0 4.25-3.96 4.99-7.266 4.99-4.093 0-6.134-.948-8.19-1.95l1.01-2.33c1.96.883 3.784 1.77 7.24 1.77 2.65 0 4.5-.57 4.5-2.22 0-1.88-.966-1.934-6.493-2.074-3.36-.06-5.7-1.028-5.7-4.106 0-2.48 1.858-4.76 6.81-4.76 3.55 0 5.598.698 7.44 1.56l-1.044 2.12"/>
  <linearGradient id="a" x1="-93.763" x2="-16.43" y1="-27.625" y2="13.064" gradientUnits="userSpaceOnUse" gradientTransform="matrix(1 0 0 -1 104 29)">
    <stop offset="0" stop-color="#13B5EA"/>
    <stop offset=".362" stop-color="#1491C9"/>
    <stop offset=".777" stop-color="#156EA8"/>
    <stop offset="1" stop-color="#15619C"/>
  </linearGradient>
  <path fill="url(#a)" d="M31.2 43.835l13.14-9.79C22.14 37.55 7.96 44.68 4.43 46.605c1.355-.023 20.866-.238 35.364 7.62l10.46-11.837C40.12 42.218 31.2 43.834 31.2 43.834zM83.202 5.083l-44.908 23.65h13.17l31.738-23.65z"/>
  <path fill="#005288" d="M31.2 43.835s8.92-1.617 19.053-1.447l8.812-9.974c-5.232.336-10.148.908-14.725 1.63l-13.14 9.79zm20.264-15.102h10.85l20.89-23.65-31.74 23.65z"/>
  <linearGradient id="b" x1="1465.596" x2="1498.602" y1="1583.496" y2="1630.505" gradientUnits="userSpaceOnUse" gradientTransform="matrix(1 0 0 -1 -1416.15 1636.816)">
    <stop offset="0" stop-color="#6E717A"/>
    <stop offset=".177" stop-color="#878A91"/>
    <stop offset=".552" stop-color="#D2D2D6"/>
    <stop offset=".604" stop-color="#DFDFE1"/>
    <stop offset=".771" stop-color="#96989F"/>
    <stop offset=".924" stop-color="#656871"/>
    <stop offset="1" stop-color="#545861"/>
  </linearGradient>
  <path fill="url(#b)" d="M50.253 42.388c4.225.072 8.662.457 12.754 1.4l6.117-11.722c-3.47.018-6.824.135-10.06.348l-8.81 9.974zm12.06-13.655h8.547l12.342-23.65-20.89 23.65z"/>
</svg>
